# xmcd
#
# Track frame offsets: 
#        150
#        13936
#        35022
#        48622
#        63356
#        75534
#        90691
#        103004
#        119301
#        133513
#        143970
#        159325
#        182415
#        197458
#        211978
#        228023
#
# Disc length: 3233 seconds
#
# Revision: 0
# Processed by: cddbd v1.5.2PL0 Copyright (c) Steve Scherf et al.
# Submitted via: ExactAudioCopyFreeDBPlugin 1.0
#
DISCID=d10c9f10
DTITLE=Jamey Johnson - Living For A Song: A Tribute To Hank Cochran
DYEAR=2012
DGENRE=Country
TTITLE0=Make The World Go Away (feat. Alison Krauss)
TTITLE1=I Fall To Pieces (feat. Merle Haggard)
TTITLE2=A Way To Survive (feat. Leon Russell and Vince Gill)
TTITLE3=Don't Touch Me (feat. Emmylou Harris)
TTITLE4=You Wouldn't Know Love (feat. Ray Price)
TTITLE5=I Don't Do Windows (feat Ray Benson and Asleep At The Wheel)
TTITLE6=She'll Be Back (feat. Elvis Cosetllo)
TTITLE7=Would These Arms Be In Your Way (feat. Red Lane)
TTITLE8=The Eagle (feat. George Strait)
TTITLE9=A-11 (feat. Ronnie Dunn)
TTITLE10=I'd Fight The World (feat. Bobby Bare)
TTITLE11=Don't You Ever Get Tire Of Hurting Me (feat. Willie Nelson)
TTITLE12=This Ain't My First Rodeo (feat. Lee Ann Womack)
TTITLE13=Love Makes A Fool Of Us All (feat. Kris Kristofferson)
TTITLE14=Everything But You (feat. Leon Russell and Willie Nelson)
TTITLE15=Living For A Song (feat. Hank Cochran, Kris Kristofferson, Wi
TTITLE15=llie Nelson and Merle Haggard)
EXTD=
EXTT0=
EXTT1=
EXTT2=
EXTT3=
EXTT4=
EXTT5=
EXTT6=
EXTT7=
EXTT8=
EXTT9=
EXTT10=
EXTT11=
EXTT12=
EXTT13=
EXTT14=
EXTT15=
PLAYORDER=
